<svg width="344" height="57" viewBox="0 0 344 57" fill="none" xmlns="http://www.w3.org/2000/svg">
<path d="M13.1352 41.2704C11.0601 41.2704 9.2057 40.9362 7.59415 40.2677C5.96053 39.5992 4.59181 38.6947 3.46594 37.5347C2.34006 36.3746 1.47909 35.0376 0.883041 33.4843C0.286988 31.931 0 30.2597 0 28.5098C0 27.6644 0.11038 26.7599 0.309064 25.7768C0.529825 24.7937 0.860965 23.8696 1.32456 23.0045C1.78816 22.1394 2.42836 21.4119 3.20102 20.8417C3.97368 20.2715 4.94503 19.9569 6.13713 19.9569C6.75526 19.9569 7.26301 20.1338 7.66038 20.4878C8.05775 20.8417 8.25643 21.2939 8.25643 21.8444C8.25643 22.3556 8.05775 22.7882 7.66038 23.1618C7.26301 23.5354 6.75526 23.732 6.13713 23.732C5.80599 23.732 5.51901 23.9483 5.29825 24.3612C5.05541 24.7741 4.85673 25.2656 4.70219 25.8358C4.54766 26.406 4.4152 26.9369 4.34898 27.4284C4.28275 27.9396 4.2386 28.2935 4.2386 28.4902C4.2386 29.7092 4.4152 30.8693 4.81257 31.9507C5.20994 33.0321 5.73977 33.9955 6.46827 34.8213C7.19678 35.6471 8.12398 36.296 9.24985 36.7678C10.3757 37.2594 11.6782 37.4953 13.1352 37.4953C14.8792 37.4953 16.3583 37.2201 17.5504 36.6695C18.7425 36.119 19.7139 35.4112 20.4424 34.5264C21.1709 33.6416 21.7007 32.6585 22.0319 31.5771C22.363 30.4957 22.5175 29.4143 22.5175 28.3722C22.5175 27.1925 22.2968 26.1701 21.8773 25.2853C21.4579 24.4005 20.8618 23.614 20.1113 22.9258C19.3607 22.2377 18.4776 21.5888 17.5063 20.999C16.5129 20.4091 15.4753 19.8192 14.3936 19.2294C13.356 18.6395 12.3184 18.03 11.2808 17.4008C10.2654 16.7913 9.33816 16.1031 8.54342 15.356C7.74868 14.6088 7.0864 13.7437 6.60073 12.7999C6.11506 11.8562 5.87222 10.7551 5.87222 9.49672C5.87222 8.27768 6.11506 7.15695 6.62281 6.0952C7.10848 5.05312 7.79284 4.12901 8.67588 3.32287C9.53684 2.51673 10.5744 1.90721 11.7886 1.47464C12.9807 1.04208 14.2611 0.806137 15.6298 0.806137C18.6542 0.806137 21.0384 1.55329 22.8266 3.06726C24.6148 4.58123 25.5199 6.6654 25.5199 9.35909C25.5199 9.77199 25.4757 10.3225 25.4095 10.991C25.3433 11.6595 25.1887 12.3084 24.9459 12.9376C24.7031 13.5667 24.394 14.1173 23.9966 14.5695C23.5993 15.0217 23.0694 15.2577 22.4072 15.2577C21.8332 15.2577 21.3475 15.0611 20.9281 14.6875C20.4865 14.3532 20.2658 13.901 20.2658 13.4094C20.2658 13.0752 20.332 12.7803 20.4865 12.5247C20.7294 12.1904 20.906 11.7382 21.0605 11.168C21.2151 10.5978 21.2813 9.98827 21.2813 9.31976C21.2813 7.72714 20.7956 6.54743 19.8022 5.76095C18.7867 4.97447 17.3959 4.60089 15.6077 4.60089C13.9962 4.60089 12.6937 5.07278 11.6561 6.01655C10.6186 6.96033 10.1108 8.12038 10.1108 9.51638C10.1108 10.9517 10.6848 12.1118 11.8327 13.0162C12.9807 13.901 14.5702 14.8841 16.6012 15.9852C17.727 16.6143 18.8971 17.2829 20.0892 17.9907C21.2813 18.6985 22.3851 19.544 23.3785 20.5074C24.3719 21.4708 25.1887 22.5916 25.8069 23.8696C26.4471 25.1476 26.7561 26.6419 26.7561 28.3722C26.7561 30.1811 26.4471 31.872 25.8069 33.445C25.1667 35.0179 24.2836 36.3943 23.1136 37.574C21.9656 38.7537 20.5307 39.6582 18.8308 40.307C17.1751 40.9558 15.2545 41.2704 13.1352 41.2704Z" fill="#F8A797"/>
<path d="M43.0261 31.5771C43.1144 31.1249 43.3573 30.7513 43.7325 30.5153C44.1078 30.2597 44.5494 30.1418 45.0792 30.1418C45.6532 30.1418 46.1388 30.3187 46.5583 30.6726C46.9777 31.0266 47.1985 31.4788 47.1985 32.0293C47.1985 32.3242 47.1102 32.6978 46.9557 33.1304C46.8011 33.563 46.6024 34.0152 46.3817 34.4477C46.1609 34.8803 45.9402 35.3129 45.6752 35.7454C45.4103 36.1583 45.2116 36.4729 45.0792 36.6892C42.9157 39.7565 40.09 41.2901 36.602 41.2901C35.1891 41.2901 33.997 41.0345 33.0257 40.5036C32.0543 39.9727 31.2817 39.2846 30.6635 38.4195C30.0454 37.5543 29.6039 36.5909 29.3169 35.5291C29.0299 34.4674 28.8975 33.4057 28.8975 32.3439C28.8975 30.9676 29.0741 29.5912 29.4714 28.2149C29.8467 26.8582 30.3986 25.6195 31.1051 24.4988C31.8115 23.3977 32.6504 22.4933 33.6438 21.8248C34.6372 21.1563 35.741 20.822 36.9552 20.822C38.6551 20.822 40.1562 21.2742 41.4808 22.1787C42.8054 23.0831 43.4676 24.3218 43.4676 25.9145C43.4676 26.9565 43.2027 27.861 42.6508 28.5885C42.0989 29.316 41.4146 29.9255 40.5757 30.417C39.7368 30.9086 38.7654 31.2625 37.7058 31.4788C36.6461 31.7147 35.6306 31.8327 34.6372 31.8327C34.0632 31.8327 33.5997 31.6754 33.2244 31.3215C33.1802 31.4984 33.1581 31.6557 33.1581 31.8327C33.1581 32.0097 33.1581 32.167 33.1581 32.3439C33.1581 32.8551 33.2023 33.4057 33.2906 34.0152C33.3789 34.6247 33.5555 35.1752 33.7763 35.6864C34.0191 36.1977 34.3723 36.6302 34.8359 36.9841C35.2995 37.338 35.8956 37.515 36.602 37.515C37.4409 37.515 38.2356 37.3184 38.9421 36.9448C39.6485 36.5712 40.2666 36.0993 40.8185 35.5291C41.3704 34.9589 41.8119 34.3298 42.1872 33.6416C42.5404 32.9338 42.8274 32.2653 43.0261 31.5771ZM33.8425 28.1952C33.9749 28.1559 34.1074 28.1166 34.2399 28.0969C34.3502 28.0773 34.4827 28.0576 34.6372 28.0576C35.0125 28.0576 35.454 28.0183 35.9839 27.9593C36.4916 27.9003 36.9994 27.7823 37.463 27.6054C37.9266 27.4481 38.346 27.2121 38.6992 26.9369C39.0524 26.6616 39.229 26.3274 39.229 25.8948C39.229 25.4819 39.0083 25.1476 38.5888 24.9117C38.1694 24.6757 37.6175 24.5578 36.9552 24.5578C36.5799 24.5578 36.2267 24.6954 35.8956 24.9707C35.5644 25.2459 35.2774 25.5605 35.0125 25.9538C34.7476 26.3274 34.5268 26.7206 34.3061 27.1138C34.0853 27.5464 33.9308 27.9003 33.8425 28.1952Z" fill="#F8A797"/>
<path d="M67.332 37.3184V38.0066C67.7073 38.4195 67.906 38.8717 67.906 39.3239C67.906 39.8351 67.7073 40.2677 67.3099 40.6413C66.9125 41.0148 66.4048 41.2115 65.7867 41.2115C65.1685 41.2115 64.6829 41.0935 64.3297 40.8379C63.9764 40.5823 63.7115 40.2677 63.5128 39.8548C63.3142 39.4615 63.2038 39.029 63.1596 38.5571C63.1155 38.1049 63.0934 37.6526 63.0934 37.2397C63.0934 36.5319 63.0934 35.8437 63.1375 35.1556C63.1596 34.4871 63.2038 33.7989 63.2479 33.0714C62.8726 33.9562 62.409 34.8606 61.8792 35.8044C61.3494 36.7482 60.6871 37.633 59.9365 38.4391C59.1859 39.2649 58.325 39.9334 57.3978 40.4446C56.4485 40.9755 55.3668 41.2311 54.1526 41.2311C52.3644 41.2311 51.062 40.7002 50.2231 39.6188C49.4063 38.5571 48.9868 37.2791 48.9868 35.8044C48.9868 34.4674 49.2959 32.9141 49.9361 31.1839C50.5763 29.4536 51.4373 27.802 52.5411 26.2487C53.6449 24.6954 54.9473 23.3781 56.4706 22.277C57.9718 21.1956 59.5833 20.6451 61.2832 20.6451C62.696 20.6451 63.8219 20.9793 64.6829 21.6478C65.5218 22.3163 66.162 23.1618 66.5814 24.1645C67.0009 25.1673 67.2658 26.2487 67.3982 27.4088C67.5086 28.5688 67.5748 29.6306 67.5748 30.594C67.5748 31.7344 67.5307 32.8551 67.4644 33.9562C67.3541 35.1162 67.332 36.2173 67.332 37.3184ZM61.239 24.4791C60.2014 24.4791 59.208 24.9314 58.2367 25.8358C57.2653 26.7403 56.4044 27.802 55.6538 29.021C54.9032 30.2401 54.3071 31.4984 53.8435 32.7961C53.402 34.0938 53.1813 35.1162 53.1813 35.8831C53.1813 36.2173 53.2254 36.5712 53.2916 36.9448C53.3579 37.3184 53.6228 37.515 54.1085 37.515C54.9032 37.515 55.6759 37.1021 56.4485 36.296C57.1991 35.4702 57.8835 34.5067 58.4574 33.4057C59.0535 32.3046 59.5392 31.1839 59.9365 30.0631C60.3339 28.9621 60.5988 28.0969 60.7533 27.5071C60.8416 27.0942 61.0845 26.7403 61.4598 26.465C61.8351 26.1897 62.2766 26.0521 62.8064 26.0521C62.674 25.7178 62.4973 25.3639 62.3207 25.01C62.1221 24.6561 61.7688 24.4791 61.239 24.4791Z" fill="#F8A797"/>
<path d="M80.4008 26.1111C80.4008 25.6588 80.2904 25.2656 80.0918 24.951C79.871 24.6364 79.4957 24.4791 78.9217 24.4791C78.3478 24.4791 77.7738 24.6561 77.1557 25.01C76.5375 25.3639 76.2285 25.8751 76.2285 26.5436C76.2285 26.6616 76.3388 26.7992 76.5817 26.9172C76.8245 27.0352 77.0674 27.1728 77.3543 27.2908C77.6413 27.4088 77.9283 27.5267 78.1932 27.6054C78.4802 27.684 78.6568 27.743 78.7672 27.802C79.7606 28.1363 80.6878 28.5098 81.5929 28.9031C82.4981 29.2963 83.2486 29.7879 83.8888 30.3581C84.529 30.9282 85.0368 31.5968 85.4121 32.3636C85.7874 33.15 85.9861 34.0742 85.9861 35.1556C85.9861 36.0404 85.7653 36.8465 85.3238 37.6133C84.8823 38.3605 84.3083 39.0093 83.6019 39.5598C82.8954 40.1104 82.0786 40.5233 81.1735 40.8182C80.2463 41.1131 79.3191 41.2508 78.3919 41.2508C76.979 41.2508 75.7869 40.9952 74.7935 40.5036C73.8001 39.9924 72.9833 39.3436 72.321 38.5178C71.6587 37.692 71.173 36.7482 70.864 35.6864C70.5549 34.6247 70.4004 33.5433 70.4004 32.4422C70.4004 31.8917 70.5991 31.4395 70.9964 31.0855C71.3938 30.7316 71.9016 30.5547 72.5197 30.5547C73.1378 30.5547 73.6456 30.7316 74.0429 31.0855C74.4403 31.4395 74.639 31.8917 74.639 32.4422C74.639 32.9928 74.6831 33.563 74.7714 34.1331C74.8597 34.723 75.0584 35.2735 75.3454 35.7651C75.6324 36.2763 76.0077 36.6695 76.5155 36.9841C77.0011 37.2987 77.6413 37.456 78.3919 37.456C79.1866 37.456 79.9593 37.2397 80.6878 36.8268C81.4163 36.4139 81.7916 35.8437 81.7916 35.1359C81.7916 34.0938 81.4163 33.327 80.6878 32.8355C79.9593 32.3439 78.8114 31.8327 77.266 31.3018C76.6479 31.0855 76.0298 30.8496 75.3896 30.5743C74.7494 30.2991 74.1975 29.9845 73.6897 29.6306C73.204 29.2766 72.7846 28.8441 72.4976 28.3329C72.2106 27.8217 72.034 27.2318 72.034 26.5043C72.034 25.6588 72.2106 24.892 72.608 24.2039C72.9833 23.5157 73.491 22.8865 74.1312 22.3556C74.7714 21.8051 75.5 21.3922 76.3609 21.0973C77.1998 20.8023 78.0828 20.6647 78.9659 20.6647C80.754 20.6647 82.1448 21.1956 83.1603 22.2377C84.1758 23.2798 84.6836 24.5578 84.6836 26.0717C84.6836 26.6223 84.4628 27.0745 84.0434 27.4284C83.6239 27.7823 83.1162 27.9593 82.5643 27.9593C81.9462 27.9593 81.4384 27.7823 81.041 27.4284C80.5995 27.1138 80.4008 26.6616 80.4008 26.1111Z" fill="#F8A797"/>
<path d="M93.823 22.1394C93.9113 21.6871 94.1541 21.2939 94.5294 20.999C94.9047 20.704 95.3462 20.5664 95.876 20.5664C97.4213 20.5664 98.7901 20.8417 99.938 21.4119C101.086 21.9821 102.035 22.7292 102.808 23.673C103.558 24.6168 104.132 25.6785 104.508 26.8582C104.883 28.0379 105.082 29.257 105.082 30.5154C105.082 31.6557 104.905 32.8355 104.596 34.0938C104.265 35.3522 103.757 36.5123 103.051 37.5937C102.344 38.6751 101.439 39.5402 100.357 40.2284C99.2757 40.9165 97.9732 41.2704 96.4721 41.2704C95.0151 41.2704 93.7567 40.9362 92.6971 40.2873C91.6374 39.6385 90.7765 38.8127 90.1142 37.8296C89.4519 36.8465 88.9662 35.7454 88.6351 34.5657C88.3039 33.3663 88.1494 32.2259 88.1494 31.1445C88.1494 30.2597 88.2377 29.3553 88.4364 28.4115C88.613 27.4678 88.9441 26.583 89.4298 25.7375C89.8934 24.892 90.4895 24.1645 91.2401 23.5354C91.9023 22.9062 92.7854 22.4343 93.823 22.1394ZM100.799 30.5154C100.799 29.4339 100.578 28.2739 100.137 27.0942C99.6952 25.8948 98.8563 25.069 97.62 24.6168C97.4213 24.951 97.1785 25.2263 96.8474 25.4426C96.5162 25.6589 96.1409 25.7572 95.7215 25.7572C95.0592 25.7572 94.5073 25.9538 94.0658 26.347C93.6243 26.7403 93.2711 27.2318 93.0061 27.802C92.7412 28.3722 92.5646 28.9621 92.4763 29.5716C92.388 30.1811 92.3439 30.712 92.3439 31.1839C92.3439 31.6951 92.4101 32.3046 92.5646 33.0321C92.6971 33.7596 92.9399 34.4674 93.2269 35.1359C93.536 35.8044 93.9554 36.3746 94.5073 36.8268C95.0592 37.2791 95.6994 37.515 96.45 37.515C97.1123 37.515 97.7083 37.2987 98.2602 36.8858C98.8121 36.4729 99.2537 35.9421 99.6289 35.2735C100.004 34.6247 100.291 33.8775 100.512 33.0321C100.711 32.1866 100.799 31.3608 100.799 30.5154Z" fill="#F8A797"/>
<path d="M121.374 30.2008C121.374 28.3132 121.242 26.9369 120.977 26.0718C120.712 25.2066 120.469 24.6758 120.226 24.4595C119.807 24.6758 119.343 25.187 118.879 25.9931C118.416 26.8189 117.974 27.7234 117.577 28.7065C117.18 29.6896 116.826 30.653 116.517 31.5771C116.208 32.5012 115.988 33.1697 115.855 33.5826C115.656 34.1332 115.436 34.8213 115.193 35.6668C114.928 36.5122 114.619 37.3184 114.244 38.1245C113.868 38.9307 113.405 39.6188 112.831 40.2087C112.257 40.7986 111.572 41.0935 110.778 41.0935C110.027 41.0935 109.409 40.9362 108.901 40.5823C108.415 40.248 108.04 39.8155 107.797 39.2846C107.554 38.7537 107.4 38.2032 107.312 37.5937C107.223 36.9841 107.179 36.4336 107.179 35.9224C107.179 34.0348 107.4 32.1473 107.819 30.2597C108.239 28.3722 108.747 26.524 109.298 24.7151C109.431 24.3022 109.696 23.9679 110.071 23.732C110.446 23.496 110.866 23.3781 111.352 23.3781C111.926 23.3781 112.411 23.555 112.831 23.9089C113.25 24.2629 113.471 24.7151 113.471 25.2656C113.471 25.3443 113.449 25.4426 113.427 25.5212C113.405 25.5999 113.383 25.6982 113.383 25.7768C113.007 26.9565 112.676 28.1559 112.389 29.3553C112.102 30.5547 111.859 31.7344 111.683 32.8158C112.058 31.5968 112.5 30.2991 112.985 28.9227C113.471 27.5464 114.001 26.3077 114.575 25.2066C114.862 24.6954 115.171 24.1842 115.524 23.6337C115.877 23.0831 116.297 22.5916 116.76 22.159C117.224 21.7265 117.754 21.3529 118.35 21.058C118.946 20.763 119.608 20.6254 120.359 20.6254C121.573 20.6254 122.544 20.9793 123.228 21.6871C123.913 22.395 124.421 23.2798 124.774 24.3022C125.127 25.3246 125.348 26.3863 125.436 27.4874C125.524 28.5688 125.569 29.4929 125.569 30.2597C125.569 31.8524 125.458 33.4843 125.259 35.1752C125.039 36.8465 124.685 38.4391 124.156 39.9531C123.78 40.8379 123.096 41.2704 122.103 41.2704C121.529 41.2704 121.043 41.0738 120.623 40.7002C120.204 40.3267 119.983 39.8744 119.983 39.3829C119.983 39.1273 120.005 38.9503 120.05 38.8127C120.425 37.7706 120.734 36.4533 120.977 34.8803C121.242 33.3073 121.374 31.7541 121.374 30.2008Z" fill="#F8A797"/>
<path d="M137.887 26.1111C137.887 25.6588 137.776 25.2656 137.578 24.951C137.357 24.6364 136.982 24.4791 136.408 24.4791C135.834 24.4791 135.26 24.6561 134.641 25.01C134.023 25.3639 133.714 25.8751 133.714 26.5436C133.714 26.6616 133.825 26.7992 134.068 26.9172C134.31 27.0352 134.553 27.1728 134.84 27.2908C135.127 27.4088 135.414 27.5267 135.679 27.6054C135.966 27.684 136.143 27.743 136.253 27.802C137.246 28.1363 138.174 28.5098 139.079 28.9031C139.984 29.2963 140.734 29.7879 141.375 30.3581C142.015 30.9282 142.523 31.5968 142.898 32.3636C143.273 33.15 143.472 34.0742 143.472 35.1556C143.472 36.0404 143.251 36.8465 142.81 37.6133C142.368 38.3605 141.794 39.0093 141.088 39.5598C140.381 40.1104 139.564 40.5233 138.659 40.8182C137.732 41.1131 136.805 41.2508 135.878 41.2508C134.465 41.2508 133.273 40.9952 132.279 40.5036C131.286 39.9924 130.469 39.3436 129.807 38.5178C129.145 37.692 128.659 36.7482 128.35 35.6864C128.041 34.6247 127.886 33.5433 127.886 32.4422C127.886 31.8917 128.085 31.4395 128.482 31.0855C128.88 30.7316 129.387 30.5547 130.006 30.5547C130.624 30.5547 131.131 30.7316 131.529 31.0855C131.926 31.4395 132.125 31.8917 132.125 32.4422C132.125 32.9928 132.169 33.563 132.257 34.1331C132.346 34.723 132.544 35.2735 132.831 35.7651C133.118 36.2763 133.494 36.6695 134.001 36.9841C134.487 37.2987 135.127 37.456 135.878 37.456C136.672 37.456 137.445 37.2397 138.174 36.8268C138.902 36.4139 139.277 35.8437 139.277 35.1359C139.277 34.0938 138.902 33.327 138.174 32.8355C137.445 32.3439 136.297 31.8327 134.752 31.3018C134.134 31.0855 133.516 30.8496 132.875 30.5743C132.235 30.2991 131.683 29.9845 131.176 29.6306C130.69 29.2766 130.27 28.8441 129.983 28.3329C129.696 27.8217 129.52 27.2318 129.52 26.5043C129.52 25.6588 129.696 24.892 130.094 24.2039C130.469 23.5157 130.977 22.8865 131.617 22.3556C132.257 21.8051 132.986 21.3922 133.847 21.0973C134.686 20.8023 135.569 20.6647 136.452 20.6647C138.24 20.6647 139.631 21.1956 140.646 22.2377C141.662 23.2798 142.169 24.5578 142.169 26.0717C142.169 26.6223 141.949 27.0745 141.529 27.4284C141.11 27.7823 140.602 27.9593 140.05 27.9593C139.432 27.9593 138.924 27.7823 138.527 27.4284C138.085 27.1138 137.887 26.6616 137.887 26.1111Z" fill="#F8A797"/>
<path d="M183.408 25.7965C183.982 25.7965 184.467 25.9734 184.887 26.3274C185.306 26.6813 185.527 27.1335 185.527 27.684C185.527 29.2373 185.351 30.8299 184.997 32.4422C184.644 34.0545 184.048 35.5291 183.187 36.8465C182.348 38.1638 181.2 39.2453 179.787 40.0514C178.375 40.8772 176.608 41.2704 174.489 41.2704C171.796 41.2704 169.522 40.6806 167.668 39.4812C165.813 38.2818 164.29 36.7679 163.142 34.9196C161.994 33.0714 161.155 31.0462 160.67 28.8244C160.184 26.6026 159.919 24.4791 159.919 22.4736C159.919 20.2911 160.206 17.9317 160.802 15.3953C161.398 12.8589 162.347 10.4995 163.672 8.31701C164.996 6.13453 166.696 4.32563 168.793 2.87065C170.891 1.41566 173.452 0.707832 176.454 0.707832C178.198 0.707832 179.655 1.02242 180.803 1.65161C181.951 2.28079 182.878 3.10659 183.584 4.12901C184.291 5.15143 184.799 6.33115 185.108 7.62884C185.439 8.90687 185.593 10.2242 185.593 11.5219C185.593 12.0724 185.549 12.8786 185.461 13.9797C185.373 15.0807 185.196 16.1425 184.931 17.2239C184.666 18.2856 184.313 19.2294 183.827 20.0159C183.364 20.822 182.723 21.2152 181.929 21.2152C181.355 21.2152 180.869 21.0383 180.45 20.6844C180.03 20.3305 179.809 19.8782 179.809 19.3277C179.809 19.2097 179.854 18.9738 179.942 18.6395C180.405 17.5581 180.759 16.3784 181.002 15.12C181.244 13.8617 181.355 12.6623 181.355 11.5416C181.355 10.8337 181.289 10.0473 181.178 9.22146C181.068 8.37599 180.825 7.60918 180.472 6.92101C180.119 6.23284 179.633 5.64298 178.993 5.19076C178.352 4.73853 177.514 4.50259 176.476 4.50259C174.158 4.50259 172.215 5.15143 170.648 6.42946C169.058 7.70749 167.8 9.28044 166.873 11.109C165.924 12.9572 165.239 14.9234 164.82 16.9879C164.4 19.0721 164.18 20.9007 164.18 22.4933C164.18 23.9286 164.334 25.5016 164.643 27.2515C164.952 29.0014 165.482 30.6333 166.277 32.167C167.049 33.7006 168.109 34.9786 169.456 36.001C170.802 37.0235 172.48 37.5347 174.511 37.5347C175.968 37.5347 177.138 37.2004 177.999 36.5516C178.86 35.9027 179.545 35.0769 180.052 34.0938C180.538 33.1107 180.869 32.049 181.046 30.9086C181.2 29.7682 181.289 28.7065 181.289 27.7037C181.289 27.1532 181.487 26.7009 181.885 26.347C182.282 25.9734 182.79 25.7965 183.408 25.7965Z" fill="#F8A797"/>
<path d="M206.08 37.3184V38.0066C206.455 38.4195 206.654 38.8717 206.654 39.3239C206.654 39.8351 206.455 40.2677 206.057 40.6413C205.66 41.0148 205.152 41.2115 204.534 41.2115C203.916 41.2115 203.43 41.0935 203.077 40.8379C202.724 40.5823 202.459 40.2677 202.26 39.8548C202.062 39.4615 201.951 39.029 201.907 38.5571C201.863 38.1049 201.841 37.6526 201.841 37.2397C201.841 36.5319 201.841 35.8437 201.885 35.1556C201.907 34.4871 201.951 33.7989 201.995 33.0714C201.62 33.9562 201.157 34.8606 200.627 35.8044C200.097 36.7482 199.435 37.633 198.684 38.4391C197.933 39.2649 197.073 39.9334 196.145 40.4446C195.196 40.9755 194.114 41.2311 192.9 41.2311C191.112 41.2311 189.81 40.7002 188.971 39.6188C188.154 38.5571 187.734 37.2791 187.734 35.8044C187.734 34.4674 188.043 32.9141 188.684 31.1839C189.324 29.4536 190.185 27.802 191.289 26.2487C192.392 24.6954 193.695 23.3781 195.218 22.277C196.719 21.1956 198.331 20.6451 200.031 20.6451C201.444 20.6451 202.569 20.9793 203.43 21.6478C204.269 22.3163 204.91 23.1618 205.329 24.1645C205.748 25.1673 206.013 26.2487 206.146 27.4088C206.256 28.5688 206.322 29.6306 206.322 30.594C206.322 31.7344 206.278 32.8551 206.212 33.9562C206.124 35.1162 206.08 36.2173 206.08 37.3184ZM200.009 24.4791C198.971 24.4791 197.978 24.9314 197.006 25.8358C196.035 26.7403 195.174 27.802 194.423 29.021C193.673 30.2401 193.077 31.4984 192.613 32.7961C192.172 34.0938 191.951 35.1162 191.951 35.8831C191.951 36.2173 191.995 36.5712 192.061 36.9448C192.128 37.3184 192.392 37.515 192.878 37.515C193.673 37.515 194.445 37.1021 195.218 36.296C195.969 35.4702 196.653 34.5067 197.227 33.4057C197.823 32.3046 198.309 31.1839 198.706 30.0631C199.104 28.9621 199.368 28.0969 199.523 27.5071C199.611 27.0942 199.854 26.7403 200.229 26.465C200.605 26.1897 201.046 26.0521 201.576 26.0521C201.444 25.7178 201.267 25.3639 201.09 25.01C200.87 24.6561 200.516 24.4791 200.009 24.4791Z" fill="#F8A797"/>
<path d="M209.479 22.395C209.479 20.5861 209.501 18.7182 209.546 16.7716C209.59 14.8251 209.678 12.9179 209.788 11.0697C209.899 9.22145 210.053 7.51086 210.208 5.91824C210.362 4.32563 210.583 2.98861 210.804 1.88754C210.892 1.43532 211.135 1.06174 211.51 0.786474C211.886 0.511207 212.327 0.373573 212.857 0.373573C213.475 0.373573 213.983 0.550531 214.38 0.904446C214.778 1.25836 214.976 1.71059 214.976 2.26112C214.778 3.14591 214.623 4.2863 214.491 5.72162C214.358 7.15695 214.226 8.74957 214.093 10.5388C213.961 12.328 213.872 14.2353 213.806 16.2604C213.74 18.3053 213.696 20.3501 213.696 22.395C213.696 23.1421 213.696 23.8893 213.696 24.5971C213.696 25.3049 213.718 26.0324 213.762 26.7403C214.226 26.6223 214.888 26.3863 215.749 26.0717C216.588 25.7572 217.449 25.4032 218.288 25.01C219.127 24.6168 219.899 24.1842 220.584 23.7516C221.268 23.3191 221.687 22.9062 221.82 22.5326C221.82 22.0214 222.018 21.6085 222.416 21.2349C222.813 20.881 223.321 20.704 223.939 20.704C224.513 20.704 224.999 20.9007 225.418 21.2742C225.838 21.6478 226.058 22.1 226.058 22.5916C226.058 23.3977 225.793 24.1252 225.242 24.7937C224.69 25.4622 224.049 26.0914 223.255 26.6419C222.46 27.1925 221.643 27.7037 220.738 28.1166C219.833 28.5295 219.06 28.9031 218.398 29.1783C219.678 29.4733 220.871 29.9452 222.041 30.594C223.189 31.2428 224.204 32.0097 225.087 32.8944C225.948 33.7792 226.654 34.782 227.162 35.8831C227.67 37.0038 227.935 38.1638 227.935 39.3829C227.935 39.9334 227.736 40.3856 227.339 40.7396C226.941 41.0935 226.434 41.2704 225.816 41.2704C225.242 41.2704 224.756 41.0935 224.336 40.7396C223.917 40.3856 223.696 39.9334 223.696 39.3829C223.696 38.6751 223.498 37.9082 223.1 37.0824C222.703 36.2566 222.085 35.5095 221.268 34.8213C220.451 34.1331 219.436 33.5433 218.221 33.0911C217.029 32.6388 215.616 32.4029 214.027 32.4029C214.159 34.1331 214.314 35.3915 214.446 36.2173C214.579 37.0431 214.711 37.574 214.8 37.8296C215.374 38.1245 215.639 38.6357 215.639 39.3436C215.639 39.8941 215.44 40.3463 215.042 40.7002C214.645 41.0542 214.137 41.2311 213.519 41.2311C212.769 41.2311 212.106 40.9362 211.532 40.3463C211.157 39.9334 210.848 39.2846 210.605 38.4195C210.362 37.5543 210.164 36.5516 210.009 35.3915C209.833 34.2315 209.722 33.0321 209.656 31.7344C209.59 30.4564 209.523 29.2177 209.479 28.0183C209.435 26.8189 209.413 25.7375 209.413 24.7544C209.479 23.7713 209.479 22.9848 209.479 22.395Z" fill="#F8A797"/>
<path d="M243.874 31.5771C243.962 31.1249 244.205 30.7513 244.58 30.5153C244.956 30.2597 245.397 30.1418 245.927 30.1418C246.501 30.1418 246.986 30.3187 247.406 30.6726C247.825 31.0266 248.046 31.4788 248.046 32.0293C248.046 32.3242 247.958 32.6978 247.803 33.1304C247.649 33.563 247.45 34.0152 247.229 34.4477C247.009 34.8803 246.788 35.3129 246.523 35.7454C246.258 36.1583 246.059 36.4729 245.927 36.6892C243.763 39.7565 240.938 41.2901 237.45 41.2901C236.037 41.2901 234.845 41.0345 233.873 40.5036C232.902 39.9727 232.129 39.2846 231.511 38.4195C230.893 37.5543 230.452 36.5909 230.165 35.5291C229.878 34.4674 229.745 33.4057 229.745 32.3439C229.745 30.9676 229.922 29.5912 230.319 28.2149C230.694 26.8582 231.246 25.6195 231.953 24.4988C232.659 23.3977 233.498 22.4933 234.491 21.8248C235.485 21.1563 236.589 20.822 237.803 20.822C239.503 20.822 241.004 21.2742 242.328 22.1787C243.653 23.0831 244.315 24.3218 244.315 25.9145C244.315 26.9565 244.05 27.861 243.498 28.5885C242.947 29.316 242.262 29.9255 241.423 30.417C240.584 30.9086 239.613 31.2625 238.553 31.4788C237.494 31.7147 236.478 31.8327 235.485 31.8327C234.911 31.8327 234.447 31.6754 234.072 31.3215C234.028 31.4984 234.006 31.6557 234.006 31.8327C234.006 32.0097 234.006 32.167 234.006 32.3439C234.006 32.8551 234.05 33.4057 234.138 34.0152C234.227 34.6247 234.403 35.1752 234.624 35.6864C234.867 36.1977 235.22 36.6302 235.684 36.9841C236.147 37.338 236.743 37.515 237.45 37.515C238.289 37.515 239.083 37.3184 239.79 36.9448C240.496 36.5712 241.114 36.0993 241.666 35.5291C242.218 34.9589 242.66 34.3298 243.035 33.6416C243.41 32.9338 243.675 32.2653 243.874 31.5771ZM234.69 28.1952C234.823 28.1559 234.955 28.1166 235.088 28.0969C235.198 28.0773 235.33 28.0576 235.485 28.0576C235.86 28.0576 236.302 28.0183 236.832 27.9593C237.339 27.9003 237.847 27.7823 238.311 27.6054C238.774 27.4481 239.194 27.2121 239.547 26.9369C239.9 26.6616 240.077 26.3274 240.077 25.8948C240.077 25.4819 239.856 25.1476 239.436 24.9117C239.017 24.6757 238.465 24.5578 237.803 24.5578C237.428 24.5578 237.074 24.6954 236.743 24.9707C236.412 25.2459 236.125 25.5605 235.86 25.9538C235.595 26.3274 235.374 26.7206 235.154 27.1138C234.933 27.5464 234.778 27.9003 234.69 28.1952Z" fill="#F8A797"/>
<path d="M263.809 12.7803C263.809 12.6623 263.853 12.4657 263.941 12.2101C264.559 10.5388 265.486 8.96585 266.767 7.4912C268.047 6.01656 269.504 4.73853 271.138 3.6178C272.794 2.51673 274.582 1.63194 276.546 0.983098C278.489 0.334253 280.476 0 282.441 0C285.686 0 288.225 0.865126 290.035 2.61504C291.845 4.36495 292.75 6.64574 292.75 9.49672C292.75 12.2691 291.911 14.6482 290.212 16.634C288.512 18.6199 286.326 20.2321 283.633 21.4512C285.002 21.8248 286.304 22.2967 287.518 22.8669C288.732 23.437 289.836 24.1252 290.808 24.951C291.779 25.7768 292.53 26.7206 293.103 27.7823C293.677 28.8441 293.942 30.0828 293.942 31.4591C293.942 33.1894 293.501 34.664 292.596 35.9027C291.691 37.1414 290.543 38.1638 289.13 38.9503C287.717 39.7565 286.15 40.3267 284.428 40.7199C282.706 41.0935 281.028 41.2901 279.372 41.2901C277.672 41.2901 275.972 41.0935 274.295 40.7002C272.595 40.307 271.05 39.6975 269.659 38.8717C268.268 38.0459 267.12 37.0235 266.237 35.7848C265.354 34.5461 264.846 33.0714 264.758 31.3412C264.714 30.8299 264.89 30.3974 265.288 30.0238C265.685 29.6502 266.193 29.4339 266.811 29.3946C267.385 29.3553 267.871 29.5126 268.29 29.8665C268.709 30.2204 268.952 30.6726 268.996 31.2232C269.041 32.4029 269.416 33.386 270.1 34.1725C270.785 34.9786 271.624 35.6275 272.639 36.119C273.655 36.6302 274.758 36.9841 275.95 37.1808C277.143 37.397 278.29 37.4953 279.372 37.4953C280.366 37.4953 281.447 37.397 282.662 37.1808C283.854 36.9645 284.979 36.6302 286.017 36.178C287.055 35.7258 287.916 35.0966 288.622 34.3298C289.328 33.563 289.682 32.5995 289.682 31.4591C289.682 30.0828 289.152 28.9031 288.092 27.9593C287.033 27.0155 285.752 26.2487 284.251 25.6588C282.75 25.069 281.16 24.6364 279.527 24.3612C277.871 24.0859 276.436 23.9286 275.222 23.8893C274.228 23.8106 273.566 23.3781 273.235 22.6309C273.323 24.5185 273.478 26.0914 273.699 27.3498C273.919 28.6081 274.008 29.257 274.008 29.2963C274.008 29.375 274.008 29.4536 274.052 29.4929C274.074 29.5323 274.096 29.5912 274.096 29.6895C274.096 30.2008 273.875 30.6333 273.456 31.0069C273.036 31.3805 272.529 31.5771 271.977 31.5771C271.447 31.5771 271.005 31.4395 270.608 31.1642C270.211 30.8889 269.968 30.535 269.857 30.0631C269.813 29.9452 269.659 29.0997 269.394 27.5464C269.129 25.9931 268.996 24.0859 268.996 21.8248C268.996 19.9372 269.173 17.912 269.526 15.7296C269.879 13.5471 270.542 11.4236 271.535 9.37875C271.91 8.6316 272.573 8.23836 273.522 8.23836C274.096 8.23836 274.582 8.43498 275.001 8.80855C275.421 9.18213 275.641 9.63436 275.641 10.1259C275.641 10.3815 275.575 10.6371 275.421 10.8731C274.626 12.6033 274.074 14.3729 273.765 16.1818C273.456 18.0103 273.279 19.7406 273.235 21.3725C273.566 20.6647 274.14 20.2321 274.935 20.1142C276.436 19.8979 278.003 19.5243 279.593 18.9541C281.205 18.3839 282.662 17.6564 283.964 16.7913C285.289 15.9065 286.37 14.8644 287.209 13.6454C288.048 12.4264 288.49 11.05 288.49 9.49672C288.49 7.6485 287.982 6.23284 286.966 5.24974C285.951 4.26664 284.428 3.77509 282.419 3.77509C281.094 3.77509 279.703 4.01104 278.224 4.46326C276.745 4.93515 275.332 5.58399 273.986 6.4098C272.639 7.25526 271.425 8.25802 270.343 9.43774C269.261 10.6175 268.467 11.9151 267.937 13.3308C267.562 14.2156 266.877 14.6482 265.884 14.6482C265.31 14.6482 264.824 14.4515 264.405 14.078C264.029 13.724 263.809 13.2718 263.809 12.7803Z" fill="#F8A797"/>
<path d="M302.022 38.7537C302.11 39.0093 302.155 39.2059 302.155 39.3829C302.155 39.8941 301.934 40.3267 301.514 40.7002C301.095 41.0738 300.587 41.2704 300.035 41.2704C299.042 41.2704 298.358 40.8575 297.982 40.0121C297.695 39.3042 297.452 38.2622 297.276 36.9055C297.077 35.5488 296.923 33.9955 296.79 32.2849C296.658 30.5743 296.547 28.7458 296.481 26.8386C296.415 24.9314 296.349 23.1028 296.305 21.3332C296.26 19.5636 296.238 17.971 296.238 16.516C296.238 15.0611 296.238 13.9207 296.238 13.0949C296.238 10.7551 296.282 8.59227 296.349 6.60641C296.415 4.64022 296.525 3.10658 296.658 2.00552C296.746 1.55329 296.989 1.16005 297.408 0.84546C297.828 0.530869 298.269 0.373573 298.777 0.373573C299.351 0.373573 299.837 0.550531 300.256 0.904446C300.676 1.25836 300.896 1.71059 300.896 2.26112C300.764 3.18523 300.653 4.62055 300.587 6.56709C300.521 8.51362 300.477 10.7158 300.477 13.1342C300.477 14.019 300.499 15.1987 300.521 16.6537C300.543 18.1283 300.565 19.7209 300.587 21.4315C300.609 23.1618 300.653 24.9117 300.72 26.7206C300.786 28.5295 300.874 30.2204 301.007 31.813C301.117 33.4057 301.272 34.8213 301.426 36.06C301.603 37.3184 301.801 38.2228 302.022 38.7537Z" fill="#F8A797"/>
<path d="M310.146 22.1394C310.235 21.6871 310.477 21.2939 310.853 20.999C311.228 20.704 311.669 20.5664 312.199 20.5664C313.745 20.5664 315.113 20.8417 316.261 21.4119C317.409 21.9821 318.358 22.7292 319.131 23.673C319.882 24.6168 320.456 25.6785 320.831 26.8582C321.206 28.0379 321.405 29.257 321.405 30.5154C321.405 31.6557 321.228 32.8355 320.919 34.0938C320.588 35.3522 320.08 36.5123 319.374 37.5937C318.668 38.6751 317.762 39.5402 316.681 40.2284C315.599 40.9165 314.296 41.2704 312.795 41.2704C311.338 41.2704 310.08 40.9362 309.02 40.2873C307.961 39.6385 307.1 38.8127 306.437 37.8296C305.775 36.8465 305.289 35.7454 304.958 34.5657C304.627 33.3663 304.473 32.2259 304.473 31.1445C304.473 30.2597 304.561 29.3553 304.76 28.4115C304.936 27.4678 305.267 26.583 305.753 25.7375C306.217 24.892 306.813 24.1645 307.563 23.5354C308.226 22.9062 309.109 22.4343 310.146 22.1394ZM317.144 30.5154C317.144 29.4339 316.924 28.2739 316.482 27.0942C316.04 25.8948 315.202 25.069 313.965 24.6168C313.767 24.951 313.524 25.2263 313.193 25.4426C312.862 25.6589 312.486 25.7572 312.067 25.7572C311.405 25.7572 310.853 25.9538 310.411 26.347C309.97 26.7403 309.616 27.2318 309.351 27.802C309.087 28.3722 308.91 28.9621 308.822 29.5716C308.733 30.1811 308.689 30.712 308.689 31.1839C308.689 31.6951 308.755 32.3046 308.91 33.0321C309.042 33.7596 309.285 34.4674 309.572 35.1359C309.881 35.8044 310.301 36.3746 310.853 36.8268C311.405 37.2791 312.045 37.515 312.795 37.515C313.458 37.515 314.054 37.2987 314.606 36.8858C315.157 36.4729 315.599 35.9421 315.974 35.2735C316.35 34.6247 316.637 33.8775 316.857 33.0321C317.034 32.1866 317.144 31.3608 317.144 30.5154Z" fill="#F8A797"/>
<path d="M323.502 33.7792C323.502 32.2259 323.855 30.6726 324.562 29.0997C325.268 27.5267 326.239 26.1111 327.454 24.8134C328.668 23.5354 330.103 22.4933 331.736 21.7068C333.37 20.9203 335.092 20.5074 336.924 20.5074C337.542 20.5074 338.05 20.6844 338.447 21.0383C338.845 21.3922 339.043 21.8444 339.043 22.395C339.043 22.9062 338.845 23.3191 338.47 23.6533C338.757 23.7713 338.999 23.9483 339.242 24.1645C340.037 24.9707 340.699 25.8751 341.185 26.8976C341.671 27.92 342.068 29.0014 342.355 30.1024C342.642 31.2232 342.841 32.3439 342.951 33.504C343.061 34.664 343.128 35.7454 343.128 36.7482C343.128 38.6751 342.907 40.8182 342.465 43.158C342.024 45.4978 341.273 47.6999 340.236 49.7644C339.198 51.8289 337.829 53.5395 336.129 54.9158C334.43 56.2922 332.332 57 329.838 57C328.182 57 326.88 56.5478 325.908 55.6433C324.937 54.7389 324.451 53.5592 324.451 52.0845C324.451 50.8655 324.738 49.6464 325.334 48.4274C325.93 47.2083 326.703 46.1073 327.674 45.1242C328.646 44.1411 329.772 43.3349 331.074 42.7254C332.377 42.1159 333.723 41.821 335.136 41.821C336.218 41.821 337.277 42.0176 338.315 42.3912C338.492 41.4277 338.646 40.4643 338.734 39.5205C338.823 38.5768 338.867 37.6133 338.867 36.6499C338.867 35.0966 338.734 33.6023 338.447 32.1866C338.116 33.1107 337.697 34.0152 337.211 34.9196C336.726 35.8241 336.107 36.6302 335.401 37.338C334.694 38.0459 333.878 38.6357 332.928 39.1076C331.979 39.5598 330.897 39.7958 329.683 39.7958C327.652 39.7958 326.107 39.2256 325.047 38.0655C324.032 36.9448 323.502 35.5095 323.502 33.7792ZM335.931 24.3415C334.761 24.5185 333.657 24.9314 332.641 25.5999C331.626 26.2684 330.765 27.0745 330.036 27.9986C329.308 28.9227 328.734 29.9058 328.337 30.9282C327.939 31.9507 327.741 32.9141 327.741 33.7989C327.741 34.4674 327.873 35.0179 328.138 35.4308C328.403 35.8437 328.933 36.06 329.727 36.06C330.809 36.06 331.714 35.6471 332.421 34.8017C333.127 33.9562 333.723 32.9534 334.187 31.7737C334.65 30.594 335.004 29.4143 335.202 28.2149C335.401 27.0155 335.511 26.0717 335.511 25.3443C335.6 24.9314 335.754 24.5971 335.931 24.3415ZM328.734 52.1042C328.734 52.4778 328.8 52.7727 328.955 52.9496C329.109 53.1266 329.396 53.2249 329.882 53.2249C330.875 53.2249 331.758 52.989 332.575 52.5367C333.37 52.0845 334.076 51.4947 334.695 50.7672C335.313 50.0593 335.82 49.2925 336.24 48.4667C336.659 47.6409 337.012 46.8544 337.299 46.1073C336.637 45.8124 335.931 45.6747 335.18 45.6747C334.341 45.6747 333.524 45.891 332.774 46.3039C332.023 46.7168 331.339 47.2477 330.721 47.8769C330.103 48.506 329.617 49.1942 329.264 49.961C328.911 50.7082 328.734 51.416 328.734 52.1042Z" fill="#F8A797"/>
</svg>
